<?xml version="1.0" encoding="UTF-8"?><svg id="b" xmlns="http://www.w3.org/2000/svg" viewBox="0 0 790.1 538.1"><defs><style>.e{fill:#a02243;}.f{fill:#691b32;}.g{fill:#be315e;}.h{fill:#3d131f;}</style></defs><g id="c"><g id="d"><g><g><g><polygon class="e" points="212.6 249.3 235.4 237.6 194.3 231.4 212.6 249.3"/><path class="h" d="m212.5,250l24.8-12.8-44.8-6.8,20.1,19.6Zm20.9-12.2l-20.7,10.7-16.7-16.3,37.4,5.7Z"/></g><g><polygon class="e" points="36.8 147.3 59.6 135.5 18.4 129.3 36.8 147.3"/><path class="h" d="m36.7,148l24.8-12.8-44.8-6.8,20.1,19.6Zm20.9-12.2l-20.7,10.7-16.7-16.3,37.4,5.7Z"/></g><path class="e" d="m19.5,22.8L54,2.9c5.2-3,10-2.9,13.4-.3l300.8,174.7-46.1,100.5-13.3,27.6-41.2-23.9-3.3-9.7c-1.1-3.4-3.5-6.4-6.1-7.9l-36.7-21.2c-2.6-1.5-5-1.2-6.1.9l-3.2,5.7-120.1-69.8-3.4-9.8c-1.1-3.4-3.5-6.4-6.1-7.9l-36.7-21.2c-2.6-1.5-5-1.2-6.1.9l-3.3,5.8-28.7-16.7c-.4-.2-.9-.5-1.3-.7h0c-3.7-2.5-6-7.7-6-14.9v-55.9c0-13.9,8.5-30.2,18.9-36.2Z"/><path class="h" d="m309.1,306.3l13.6-28.1,46.4-101.1-.5-.3L67.8,2.1c-3.7-2.9-8.7-2.8-14,.3L19.2,22.3C8.6,28.4,0,44.9,0,59v55.9c0,7.2,2.2,12.6,6.2,15.4.4.3.9.6,1.3.8l29.2,16.9,3.6-6.3c.4-.7,1-1.2,1.7-1.4,1-.3,2.3,0,3.6.7l36.7,21.2c2.5,1.4,4.8,4.4,5.9,7.6l3.4,10h.2c0,.1,120.7,70.2,120.7,70.2l3.5-6.2c.4-.7,1-1.2,1.7-1.4,1-.3,2.3,0,3.6.7l36.7,21.2c2.5,1.4,4.8,4.4,5.9,7.6l3.4,9.9h.2c0,.1,41.7,24.4,41.7,24.4Zm58.4-128.7l-45.9,100-13,27-40.4-23.5-3.2-9.5c-1.2-3.5-3.7-6.7-6.4-8.3l-36.7-21.2c-1.6-.9-3.2-1.2-4.5-.9-1,.3-1.9,1-2.4,2l-2.9,5.2-119.4-69.4-3.3-9.6c-1.2-3.5-3.7-6.7-6.4-8.3l-36.7-21.2c-1.6-.9-3.2-1.2-4.5-.9-1,.3-1.9,1-2.4,2l-3,5.3-28.1-16.4c-.4-.2-.8-.4-1.2-.7-3.6-2.5-5.7-7.7-5.7-14.4v-55.9c0-13.7,8.4-29.7,18.6-35.7L54.3,3.4c4.8-2.8,9.4-2.9,12.8-.3l300.4,174.5Z"/><path class="h" d="m.7,56.1l.7-7.7,4.1-9.2,302.7,174.2-3.9,7.6-1.1,6.8-.3,1.8,35.4,12.9-16.2,35.4-13.3,27.6-41.2-23.9-3.3-9.7c-1.1-3.4-3.5-6.4-6.1-7.9l-36.7-21.2c-2.6-1.5-5-1.2-6.1.9l-3.2,5.7-120.1-69.8-3.4-9.8c-1.1-3.4-3.5-6.4-6.1-7.9l-36.7-21.2c-2.6-1.5-5-1.2-6.1.9l-3.3,5.8-28.7-16.7c-.4-.2-.9-.5-1.3-.7h0c-3.7-2.5-6-7.7-6-14.9v-55.9c0-.9,0-1.9.1-2.8Z"/><g><g><path class="h" d="m241.9,262.6c0,5.7,4,12.6,8.9,15.5,4.9,2.8,8.9.5,8.9-5.2s-4-12.6-8.9-15.5c-4.9-2.8-8.9-.5-8.9,5.2Z"/><path class="f" d="m243.4,258.6l15,9v1.8l-3.2-1.9c.5,1.1.7,2.3.7,3.4,0,1.7-.6,2.9-1.7,3.5-.5.3-1,.4-1.5.4s-1.6-.2-2.4-.7c-2.7-1.6-4.8-5.2-4.8-8.4s.5-2.6,1.3-3.2l-3.4-2v-1.8Zm4.5,4.8c-.6.3-.9,1.1-.9,2.2,0,2.5,1.9,5.8,4.1,7.1.9.5,1.8.7,2.4.3.6-.3.9-1.1.9-2.2,0-1.6-.7-3.5-1.9-5l-4.2-2.5c-.1,0-.3,0-.4.1Z"/></g><g><path class="h" d="m222.3,251c0,5.7,4,12.6,8.9,15.5,4.9,2.8,8.9.5,8.9-5.2s-4-12.6-8.9-15.5c-4.9-2.8-8.9-.5-8.9,5.2Z"/><path class="f" d="m223.9,247l15,9v1.8l-3.2-1.9c.5,1.1.7,2.3.7,3.4,0,1.7-.6,2.9-1.7,3.5-.5.3-1,.4-1.5.4s-1.6-.2-2.4-.7c-2.7-1.6-4.8-5.2-4.8-8.4s.5-2.6,1.3-3.2l-3.4-2v-1.8Zm4.5,4.8c-.6.3-.9,1.1-.9,2.2,0,2.5,1.9,5.8,4.1,7.1.9.5,1.8.7,2.4.3.6-.3.9-1.1.9-2.2,0-1.6-.7-3.5-1.9-5l-4.2-2.5c-.1,0-.3,0-.4.1Z"/></g></g><g><g><path class="h" d="m67.5,160.7c0,5.7,4,12.6,8.9,15.5,4.9,2.8,8.9.5,8.9-5.2s-4-12.6-8.9-15.5c-4.9-2.8-8.9-.5-8.9,5.2Z"/><path class="f" d="m69.1,156.7l15,9v1.8l-3.2-1.9c.5,1.1.7,2.3.7,3.4,0,1.7-.6,2.9-1.7,3.5-.5.3-1,.4-1.5.4s-1.6-.2-2.4-.7c-2.7-1.6-4.8-5.2-4.8-8.4s.5-2.6,1.3-3.2l-3.4-2v-1.8Zm4.5,4.8c-.6.3-.9,1.1-.9,2.2,0,2.5,1.9,5.8,4.1,7.1.9.5,1.8.7,2.4.3.6-.3.9-1.1.9-2.2,0-1.6-.7-3.5-1.9-5l-4.2-2.5c-.1,0-.3,0-.4.1Z"/></g><g><path class="h" d="m48,149.2c0,5.7,4,12.6,8.9,15.5,4.9,2.8,8.9.5,8.9-5.2s-4-12.6-8.9-15.5c-4.9-2.8-8.9-.5-8.9,5.2Z"/><path class="f" d="m49.6,145.2l15,9v1.8l-3.2-1.9c.5,1.1.7,2.3.7,3.4,0,1.7-.6,2.9-1.7,3.5-.5.3-1,.4-1.5.4s-1.6-.2-2.4-.7c-2.7-1.6-4.8-5.2-4.8-8.4s.5-2.6,1.3-3.2l-3.4-2v-1.8Zm4.5,4.8c-.6.3-.9,1.1-.9,2.2,0,2.5,1.9,5.8,4.1,7.1.9.5,1.8.7,2.4.3.6-.3.9-1.1.9-2.2,0-1.6-.7-3.5-1.9-5l-4.2-2.5c-.1,0-.3,0-.4.1Z"/></g></g><g><path class="e" d="m321.6,304.7l34.5-19.9c10.4-6,18.9-22.3,18.9-36.2v-55.9c0-13.9-8.5-20.3-18.9-14.3l-34.5,19.9c-10.4,6-18.9,22.3-18.9,36.2v55.9c0,13.9,8.5,20.3,18.9,14.3Z"/><path class="h" d="m314.1,307.6c2.5,0,5.1-.8,7.8-2.3l34.5-19.9c10.6-6.1,19.2-22.6,19.2-36.7v-55.9c0-7.5-2.5-13.3-6.9-15.8-3.6-2.1-8.2-1.8-13,1l-34.5,19.9c-10.6,6.1-19.2,22.6-19.2,36.7v55.9c0,7.5,2.5,13.3,6.9,15.8,1.6.9,3.3,1.4,5.2,1.4Zm49.4-130.8c1.7,0,3.2.4,4.6,1.2,4,2.3,6.3,7.7,6.3,14.8v55.9c0,13.7-8.4,29.7-18.6,35.7l-34.5,19.9c-4.3,2.5-8.5,2.9-11.8,1-4-2.3-6.3-7.7-6.3-14.8v-55.9c0-13.7,8.4-29.7,18.6-35.7l34.5-19.9c2.5-1.4,4.9-2.2,7.2-2.2Z"/></g><polygon class="g" points="41.8 20.5 17.6 34.5 306.9 199.9 331.1 185.9 41.8 20.5"/><polygon class="g" points="59.9 10 49.4 15.9 338.7 181.3 349.2 175.4 59.9 10"/><g><path class="e" d="m282.5,270.8c.7,0,1.3-.2,1.9-.5,1.6-.9,2.4-2.9,2.4-5.6v-33.5c0-4.8-3-10.5-6.6-12.6l-9.2-5.3c-1.7-1-3.3-1.1-4.7-.3-1.6.9-2.4,2.9-2.4,5.6v33.5c0,4.8,3,10.5,6.6,12.6l9.2,5.3c1,.6,1.9.8,2.8.8Zm-14.3-57.4c.7,0,1.5.2,2.3.7l9.2,5.3c3.4,1.9,6.1,7.2,6.1,11.7v33.5c0,2.3-.7,4-2,4.7-1,.6-2.3.5-3.7-.3l-9.2-5.3c-3.4-1.9-6.1-7.2-6.1-11.7v-33.5c0-2.3.7-4,2-4.7.4-.2.9-.4,1.4-.4Z"/><path class="e" d="m283.8,259.9v-5.3l-3.7-2.2c-.5-.3-.9-.3-1.3,0-.4.3-.7.8-.7,1.5v.5c0,1.2.7,2.7,1.7,3.2l4,2.3Zm-.6-5v3.9l-3.1-1.8c-.8-.4-1.4-1.7-1.4-2.7v-.5c0-.5.1-.8.4-1,.2-.1.5,0,.7,0l3.4,2Z"/><path class="e" d="m271.2,220.7c1-.6,2.3-.5,3.6.3l1.5.9c2.8,1.6,5.1,5.9,5.1,9.6v9.3c0,2-.7,3.6-1.9,4.3-.5.3-.9.4-1.5.4s-1.4-.2-2.2-.6l-1.5-.9c-2.8-1.6-5.1-5.9-5.1-9.6v-9.3c0-2,.7-3.6,1.9-4.3Zm1.9.6c-.1,0-.3,0-.4,0-.4,0-.7,0-1,.3-.9.5-1.4,1.8-1.4,3.5v9.3c0,3.4,2,7.3,4.6,8.8l1.5.9c1,.6,1.9.7,2.7.3.2-.1.4-.3.6-.5-.2,0-.3-.1-.5-.2l-1.5-.9c-2.7-1.6-5-5.8-5-9.5v-9.3c0-1,.2-1.8.5-2.5Zm7.4,10.1c0-3.4-2-7.3-4.6-8.8l-1.5-.9c-.2-.1-.4-.2-.7-.3-.3.7-.5,1.4-.5,2.4v9.3c0,3.4,2.1,7.4,4.7,8.9l1.5.9c.2,0,.4.2.5.2.3-.6.5-1.5.5-2.4v-9.3Z"/></g><g><path class="e" d="m34.6,127.6c.7,0,1.3-.2,1.9-.5,1.6-.9,2.4-2.9,2.4-5.6v-33.5c0-4.8-3-10.5-6.6-12.6l-9.2-5.3c-1.7-1-3.3-1.1-4.7-.3-1.6.9-2.4,2.9-2.4,5.6v33.5c0,4.8,3,10.5,6.6,12.6l9.2,5.3c1,.6,1.9.8,2.8.8Zm-14.3-57.4c.7,0,1.5.2,2.3.7l9.2,5.3c3.4,1.9,6.1,7.2,6.1,11.7v33.5c0,2.3-.7,4-2,4.7-1,.6-2.3.5-3.7-.3l-9.2-5.3c-3.4-1.9-6.1-7.2-6.1-11.7v-33.5c0-2.3.7-4,2-4.7.4-.2.9-.4,1.4-.4Z"/><path class="e" d="m35.9,116.7v-5.3l-3.7-2.2c-.5-.3-.9-.3-1.3,0-.4.3-.7.8-.7,1.5v.5c0,1.2.7,2.7,1.7,3.2l4,2.3Zm-.6-5v3.9l-3.1-1.8c-.8-.4-1.4-1.7-1.4-2.7v-.5c0-.5.1-.8.4-1,.2-.1.5,0,.7,0l3.4,2Z"/><path class="e" d="m23.3,77.5c1-.6,2.3-.5,3.6.3l1.5.9c2.8,1.6,5.1,5.9,5.1,9.6v9.3c0,2-.7,3.6-1.9,4.3-.5.3-.9.4-1.5.4s-1.4-.2-2.2-.6l-1.5-.9c-2.8-1.6-5.1-5.9-5.1-9.6v-9.3c0-2,.7-3.6,1.9-4.3Zm1.9.6c-.1,0-.3,0-.4,0-.4,0-.7,0-1,.3-.9.5-1.4,1.8-1.4,3.5v9.3c0,3.4,2,7.3,4.6,8.8l1.5.9c1,.6,1.9.7,2.7.3.2-.1.4-.3.6-.5-.2,0-.3-.1-.5-.2l-1.5-.9c-2.7-1.6-5-5.8-5-9.5v-9.3c0-1,.2-1.8.5-2.5Zm7.4,10.1c0-3.4-2-7.3-4.6-8.8l-1.5-.9c-.2-.1-.4-.2-.7-.3-.3.7-.5,1.4-.5,2.4v9.3c0,3.4,2.1,7.4,4.7,8.9l1.5.9c.2,0,.4.2.5.2.3-.6.5-1.5.5-2.4v-9.3Z"/></g><path class="e" d="m239.8,202.6c1-.6,2.3-.5,3.6.3l1.5.9c2.8,1.6,5.1,5.9,5.1,9.6v9.3c0,2-.7,3.6-1.9,4.3-.4.3-.9.4-1.5.4s-1.4-.2-2.2-.6l-1.5-.9c-2.8-1.6-5.1-5.9-5.1-9.6v-9.3c0-2,.7-3.6,1.9-4.3Zm1.9.6c-.1,0-.3,0-.4,0-.4,0-.7,0-1,.3-.9.5-1.4,1.8-1.4,3.5v9.3c0,3.4,2,7.3,4.6,8.8l1.5.9c1,.6,1.9.7,2.7.3.2-.1.4-.3.6-.5-.2,0-.3-.1-.5-.2l-1.5-.9c-2.7-1.6-5-5.8-5-9.5v-9.3c0-1,.2-1.8.5-2.5Zm7.4,10.1c0-3.4-2-7.3-4.6-8.8l-1.5-.9c-.2-.1-.4-.2-.7-.3-.3.7-.5,1.4-.5,2.4v9.3c0,3.4,2.1,7.4,4.7,8.9l1.5.9c.2,0,.4.2.5.2.3-.6.5-1.5.5-2.4v-9.3Z"/><path class="e" d="m223.2,192.7c1-.6,2.3-.5,3.6.3l1.5.9c2.8,1.6,5.1,5.9,5.1,9.6v9.3c0,2-.7,3.6-1.9,4.3-.5.3-.9.4-1.5.4s-1.4-.2-2.2-.6l-1.5-.9c-2.8-1.6-5.1-5.9-5.1-9.6v-9.3c0-2,.7-3.6,1.9-4.3Zm1.9.6c-.1,0-.3,0-.4,0-.4,0-.7,0-1,.3-.9.5-1.4,1.8-1.4,3.5v9.3c0,3.4,2,7.3,4.6,8.8l1.5.9c1,.6,1.9.7,2.7.3.2-.1.4-.3.6-.5-.2,0-.3-.1-.5-.2l-1.5-.9c-2.7-1.6-5-5.8-5-9.5v-9.3c0-1,.2-1.8.5-2.5Zm7.4,10.1c0-3.4-2-7.3-4.6-8.8l-1.5-.9c-.2-.1-.4-.2-.7-.3-.3.7-.5,1.4-.5,2.4v9.3c0,3.4,2.1,7.4,4.7,8.9l1.5.9c.2,0,.4.2.5.2.3-.6.5-1.5.5-2.4v-9.3Z"/><path class="e" d="m206.6,182.8c1-.6,2.3-.5,3.6.3l1.5.9c2.8,1.6,5.1,5.9,5.1,9.6v9.3c0,2-.7,3.6-1.9,4.3-.5.3-.9.4-1.5.4s-1.4-.2-2.2-.6l-1.5-.9c-2.8-1.6-5.1-5.9-5.1-9.6v-9.3c0-2,.7-3.6,1.9-4.3Zm1.9.6c-.1,0-.3,0-.4,0-.4,0-.7,0-1,.3-.9.5-1.4,1.8-1.4,3.5v9.3c0,3.4,2,7.3,4.6,8.8l1.5.9c1,.6,1.9.7,2.7.3.2-.1.4-.3.6-.5-.2,0-.3-.1-.5-.2l-1.5-.9c-2.7-1.6-5-5.8-5-9.5v-9.3c0-1,.2-1.8.5-2.5Zm7.4,10.1c0-3.4-2-7.3-4.6-8.8l-1.5-.9c-.2-.1-.4-.2-.7-.3-.3.7-.5,1.4-.5,2.4v9.3c0,3.4,2.1,7.4,4.7,8.9l1.5.9c.2,0,.4.2.5.2.3-.6.5-1.5.5-2.4v-9.3Z"/><path class="e" d="m190,173c1-.6,2.3-.5,3.6.3l1.5.9c2.8,1.6,5.1,5.9,5.1,9.6v9.3c0,2-.7,3.6-1.9,4.3-.4.3-.9.4-1.5.4s-1.4-.2-2.2-.6l-1.5-.9c-2.8-1.6-5.1-5.9-5.1-9.6v-9.3c0-2,.7-3.6,1.9-4.3Zm1.9.6c-.1,0-.3,0-.4,0-.4,0-.7,0-1,.3-.9.5-1.4,1.8-1.4,3.5v9.3c0,3.4,2,7.3,4.6,8.8l1.5.9c1,.6,1.9.7,2.7.3.2-.1.4-.3.6-.5-.2,0-.3-.1-.5-.2l-1.5-.9c-2.7-1.6-5-5.8-5-9.5v-9.3c0-1,.2-1.8.5-2.5Zm7.4,10.1c0-3.4-2-7.3-4.6-8.8l-1.5-.9c-.2-.1-.4-.2-.7-.3-.3.7-.5,1.4-.5,2.4v9.3c0,3.4,2.1,7.4,4.7,8.9l1.5.9c.2,0,.4.2.5.2.3-.6.5-1.5.5-2.4v-9.3Z"/><path class="e" d="m173.4,163.4c1-.6,2.3-.5,3.6.3l1.5.9c2.8,1.6,5.1,5.9,5.1,9.6v9.3c0,2-.7,3.6-1.9,4.3-.5.3-.9.4-1.5.4s-1.4-.2-2.2-.6l-1.5-.9c-2.8-1.6-5.1-5.9-5.1-9.6v-9.3c0-2,.7-3.6,1.9-4.3Zm1.9.6c-.1,0-.3,0-.4,0-.4,0-.7,0-1,.3-.9.5-1.4,1.8-1.4,3.5v9.3c0,3.4,2,7.3,4.6,8.8l1.5.9c1,.6,1.9.7,2.7.3.2-.1.4-.3.6-.5-.2,0-.3-.1-.5-.2l-1.5-.9c-2.7-1.6-5-5.8-5-9.5v-9.3c0-1,.2-1.8.5-2.5Zm7.4,10.1c0-3.4-2-7.3-4.6-8.8l-1.5-.9c-.2-.1-.4-.2-.7-.3-.3.7-.5,1.4-.5,2.4v9.3c0,3.4,2.1,7.4,4.7,8.9l1.5.9c.2,0,.4.2.5.2.3-.6.5-1.5.5-2.4v-9.3Z"/><path class="e" d="m156.8,153.9c1-.6,2.3-.5,3.6.3l1.5.9c2.8,1.6,5.1,5.9,5.1,9.6v9.3c0,2-.7,3.6-1.9,4.3-.4.3-.9.4-1.5.4s-1.4-.2-2.2-.6l-1.5-.9c-2.8-1.6-5.1-5.9-5.1-9.6v-9.3c0-2,.7-3.6,1.9-4.3Zm1.9.6c-.1,0-.3,0-.4,0-.4,0-.7,0-1,.3-.9.5-1.4,1.8-1.4,3.5v9.3c0,3.4,2,7.3,4.6,8.8l1.5.9c1,.6,1.9.7,2.7.3.2-.1.4-.3.6-.5-.2,0-.3-.1-.5-.2l-1.5-.9c-2.7-1.6-5-5.8-5-9.5v-9.3c0-1,.2-1.8.5-2.5Zm7.4,10.1c0-3.4-2-7.3-4.6-8.8l-1.5-.9c-.2-.1-.4-.2-.7-.3-.3.7-.5,1.4-.5,2.4v9.3c0,3.4,2.1,7.4,4.7,8.9l1.5.9c.2,0,.4.2.5.2.3-.6.5-1.5.5-2.4v-9.3Z"/><path class="e" d="m140.1,144c1-.6,2.3-.5,3.6.3l1.5.9c2.8,1.6,5.1,5.9,5.1,9.6v9.3c0,2-.7,3.6-1.9,4.3-.5.3-.9.4-1.5.4s-1.4-.2-2.2-.6l-1.5-.9c-2.8-1.6-5.1-5.9-5.1-9.6v-9.3c0-2,.7-3.6,1.9-4.3Zm1.9.6c-.1,0-.3,0-.4,0-.4,0-.7,0-1,.3-.9.5-1.4,1.8-1.4,3.5v9.3c0,3.4,2,7.3,4.6,8.8l1.5.9c1,.6,1.9.7,2.7.3.2-.1.4-.3.6-.5-.2,0-.3-.1-.5-.2l-1.5-.9c-2.7-1.6-5-5.8-5-9.5v-9.3c0-1,.2-1.8.5-2.5Zm7.4,10.1c0-3.4-2-7.3-4.6-8.8l-1.5-.9c-.2-.1-.4-.2-.7-.3-.3.7-.5,1.4-.5,2.4v9.3c0,3.4,2.1,7.4,4.7,8.9l1.5.9c.2,0,.4.2.5.2.3-.6.5-1.5.5-2.4v-9.3Z"/><path class="e" d="m123.5,134.3c1-.6,2.3-.5,3.6.3l1.5.9c2.8,1.6,5.1,5.9,5.1,9.6v9.3c0,2-.7,3.6-1.9,4.3-.5.3-.9.4-1.5.4s-1.4-.2-2.2-.6l-1.5-.9c-2.8-1.6-5.1-5.9-5.1-9.6v-9.3c0-2,.7-3.6,1.9-4.3Zm1.9.6c-.1,0-.3,0-.4,0-.4,0-.7,0-1,.3-.9.5-1.4,1.8-1.4,3.5v9.3c0,3.4,2,7.3,4.6,8.8l1.5.9c1,.6,1.9.7,2.7.3.2-.1.4-.3.6-.5-.2,0-.3-.1-.5-.2l-1.5-.9c-2.7-1.6-5-5.8-5-9.5v-9.3c0-1,.2-1.8.5-2.5Zm7.4,10.1c0-3.4-2-7.3-4.6-8.8l-1.5-.9c-.2-.1-.4-.2-.7-.3-.3.7-.5,1.4-.5,2.4v9.3c0,3.4,2.1,7.4,4.7,8.9l1.5.9c.2,0,.4.2.5.2.3-.6.5-1.5.5-2.4v-9.3Z"/><path class="e" d="m106.9,124.7c1-.6,2.3-.5,3.6.3l1.5.9c2.8,1.6,5.1,5.9,5.1,9.6v9.3c0,2-.7,3.6-1.9,4.3-.5.3-.9.4-1.5.4s-1.4-.2-2.2-.6l-1.5-.9c-2.8-1.6-5.1-5.9-5.1-9.6v-9.3c0-2,.7-3.6,1.9-4.3Zm1.9.6c-.1,0-.3,0-.4,0-.4,0-.7,0-1,.3-.9.5-1.4,1.8-1.4,3.5v9.3c0,3.4,2,7.3,4.6,8.8l1.5.9c1,.6,1.9.7,2.7.3.2-.1.4-.3.6-.5-.2,0-.3-.1-.5-.2l-1.5-.9c-2.7-1.6-5-5.8-5-9.5v-9.3c0-1,.2-1.8.5-2.5Zm7.4,10.1c0-3.4-2-7.3-4.6-8.8l-1.5-.9c-.2-.1-.4-.2-.7-.3-.3.7-.5,1.4-.5,2.4v9.3c0,3.4,2.1,7.4,4.7,8.9l1.5.9c.2,0,.4.2.5.2.3-.6.5-1.5.5-2.4v-9.3Z"/><path class="e" d="m90.3,115.2c1-.6,2.3-.5,3.6.3l1.5.9c2.8,1.6,5.1,5.9,5.1,9.6v9.3c0,2-.7,3.6-1.9,4.3-.4.3-.9.4-1.5.4s-1.4-.2-2.2-.6l-1.5-.9c-2.8-1.6-5.1-5.9-5.1-9.6v-9.3c0-2,.7-3.6,1.9-4.3Zm1.9.6c-.1,0-.3,0-.4,0-.4,0-.7,0-1,.3-.9.5-1.4,1.8-1.4,3.5v9.3c0,3.4,2,7.3,4.6,8.8l1.5.9c1,.6,1.9.7,2.7.3.2-.1.4-.3.6-.5-.2,0-.3-.1-.5-.2l-1.5-.9c-2.7-1.6-5-5.8-5-9.5v-9.3c0-1,.2-1.8.5-2.5Zm7.4,10.1c0-3.4-2-7.3-4.6-8.8l-1.5-.9c-.2-.1-.4-.2-.7-.3-.3.7-.5,1.4-.5,2.4v9.3c0,3.4,2.1,7.4,4.7,8.9l1.5.9c.2,0,.4.2.5.2.3-.6.5-1.5.5-2.4v-9.3Z"/><path class="e" d="m73.6,105.4c1-.6,2.3-.5,3.6.3l1.5.9c2.8,1.6,5.1,5.9,5.1,9.6v9.3c0,2-.7,3.6-1.9,4.3-.5.3-.9.4-1.5.4s-1.4-.2-2.2-.6l-1.5-.9c-2.8-1.6-5.1-5.9-5.1-9.6v-9.3c0-2,.7-3.6,1.9-4.3Zm1.9.6c-.1,0-.3,0-.4,0-.4,0-.7,0-1,.3-.9.5-1.4,1.8-1.4,3.5v9.3c0,3.4,2,7.3,4.6,8.8l1.5.9c1,.6,1.9.7,2.7.3.2-.1.4-.3.6-.5-.2,0-.3-.1-.5-.2l-1.5-.9c-2.7-1.6-5-5.8-5-9.5v-9.3c0-1,.2-1.8.5-2.5Zm7.4,10.1c0-3.4-2-7.3-4.6-8.8l-1.5-.9c-.2-.1-.4-.2-.7-.3-.3.7-.5,1.4-.5,2.4v9.3c0,3.4,2.1,7.4,4.7,8.9l1.5.9c.2,0,.4.2.5.2.3-.6.5-1.5.5-2.4v-9.3Z"/><path class="e" d="m57,95.9c1-.6,2.3-.5,3.6.3l1.5.9c2.8,1.6,5.1,5.9,5.1,9.6v9.3c0,2-.7,3.6-1.9,4.3-.4.3-.9.4-1.5.4s-1.4-.2-2.2-.6l-1.5-.9c-2.8-1.6-5.1-5.9-5.1-9.6v-9.3c0-2,.7-3.6,1.9-4.3Zm1.9.6c-.1,0-.3,0-.4,0-.4,0-.7,0-1,.3-.9.5-1.4,1.8-1.4,3.5v9.3c0,3.4,2,7.3,4.6,8.8l1.5.9c1,.6,1.9.7,2.7.3.2-.1.4-.3.6-.5-.2,0-.3-.1-.5-.2l-1.5-.9c-2.7-1.6-5-5.8-5-9.5v-9.3c0-1,.2-1.8.5-2.5Zm7.4,10.1c0-3.4-2-7.3-4.6-8.8l-1.5-.9c-.2-.1-.4-.2-.7-.3-.3.7-.5,1.4-.5,2.4v9.3c0,3.4,2.1,7.4,4.7,8.9l1.5.9c.2,0,.4.2.5.2.3-.6.5-1.5.5-2.4v-9.3Z"/><path class="e" d="m200.6,243.2l.6.3v-9.9c0-1.3-.7-2.4-1.7-3.1l-91.9-54.3c-.6-.3-1.2-.3-1.8,0-.6.3-.9.9-.9,1.5v9.8l.6.4v-10.1c0-.4.2-.8.6-1,.4-.2.8-.2,1.2,0l91.9,54.3c.9.5,1.4,1.5,1.4,2.6v9.6Z"/><g><path class="h" d="m308.1,185.3c1.5,0,3-.3,4.1-1l19.8-11.5c1.2-.7,1.8-1.6,1.8-2.7,0-1.2-.9-2.5-2.4-3.4l-5.6-3.2c-2.8-1.6-6.9-1.8-9.3-.4l-19.8,11.5c-1.2.7-1.8,1.6-1.8,2.7,0,1.2.9,2.5,2.4,3.4l5.6,3.2c1.5.9,3.4,1.3,5.2,1.3Zm12.5-21.8c1.6,0,3.3.4,4.6,1.2l5.6,3.2c1.2.7,1.8,1.5,1.8,2.3,0,.8-.7,1.3-1.2,1.7l-19.8,11.5c-2.1,1.2-5.7,1-8.1-.4l-5.6-3.2c-1.2-.7-1.8-1.5-1.8-2.3,0-.8.7-1.3,1.2-1.7l19.8-11.5c.9-.5,2.2-.8,3.5-.8Z"/><path class="h" d="m315.2,178.9c.4,0,.9,0,1.2-.3h0s5.6-3.3,5.6-3.3c.4-.2.7-.6.7-1,0-.5-.3-.9-.8-1.2l-.9-.5c-.8-.5-2-.5-2.7,0l-5.6,3.3c-.4.2-.7.6-.7,1s.3.9.8,1.2l.9.5c.4.2,1,.4,1.5.4Zm.6-1.3c-.3.2-1,.2-1.5,0l-.9-.5c-.2-.1-.2-.2-.2-.2l5.7-3.2c.3-.2,1-.2,1.5,0l.9.5c.2.1.2.2.2.2l-5.7,3.2Z"/></g><g><path class="h" d="m53.3,38.1c1.5,0,3-.3,4.1-1l19.8-11.5c1.2-.7,1.8-1.6,1.8-2.7s-.9-2.5-2.4-3.4l-5.6-3.2c-2.8-1.6-6.9-1.8-9.3-.4l-19.8,11.5c-1.2.7-1.8,1.6-1.8,2.7,0,1.2.9,2.5,2.4,3.4l5.6,3.2c1.5.9,3.4,1.3,5.2,1.3Zm3.5-2c-2.1,1.2-5.7,1-8.1-.4l-5.6-3.2c-1.2-.7-1.8-1.5-1.8-2.3,0-.8.7-1.3,1.2-1.7l19.8-11.5c2.1-1.2,5.7-1,8.1.4l5.6,3.2c1.2.7,1.8,1.5,1.8,2.3s-.7,1.3-1.2,1.7l-19.8,11.5Z"/><path class="h" d="m60.5,31.7c.4,0,.9,0,1.2-.3h0s5.6-3.3,5.6-3.3c.4-.2.7-.6.7-1s-.3-.9-.8-1.2l-.9-.5c-.8-.5-2-.5-2.7,0l-5.6,3.3c-.4.2-.7.6-.7,1s.3.9.8,1.2l.9.5c.4.2,1,.4,1.5.4Zm.6-1.3c-.3.2-1,.2-1.5,0l-.9-.5c-.2-.1-.2-.2-.2-.2l5.7-3.2c.3-.2,1-.2,1.5,0l.9.5c.2.1.2.2.2.2l-5.7,3.2Z"/></g><path class="f" d="m297.4,292.7c.2,0,.4,0,.6-.2.5-.3.7-.8.7-1.6v-4.3c0-1.3-.8-2.8-1.8-3.4l-7.1-4.1c-.5-.3-1-.3-1.4,0-.5.3-.7.8-.7,1.6v4.3c0,1.3.8,2.8,1.8,3.4l7.1,4.1c.3.2.5.2.8.2Zm-8.4-13.2c.2,0,.4,0,.5.2l7.1,4.1c.8.5,1.5,1.8,1.5,2.9v4.3c0,.5-.2.9-.4,1.1-.3.2-.6,0-.8,0l-7.1-4.1-.2.3.2-.3c-.8-.5-1.5-1.8-1.5-2.9v-4.3c0-.5.2-.9.4-1.1,0,0,.2,0,.3,0Z"/><path class="f" d="m13.7,131.2c.2,0,.4,0,.6-.2.5-.3.7-.8.7-1.6v-4.3c0-1.3-.8-2.8-1.8-3.4l-7.1-4.1c-.5-.3-1-.3-1.4,0-.5.3-.7.8-.7,1.6v4.3c0,1.3.8,2.8,1.8,3.4l7.1,4.1c.3.2.5.2.8.2Zm-8.4-13.2c.2,0,.4,0,.5.2l7.1,4.1c.8.5,1.5,1.8,1.5,2.9v4.3c0,.5-.2.9-.4,1.1-.3.2-.6,0-.8,0l-7.1-4.1c-.8-.5-1.5-1.8-1.5-2.9v-4.3c0-.5.2-.9.4-1.1,0,0,.2,0,.3,0Z"/></g><g><path class="e" d="m328.2,201.5l34.5-19.9c5.2-3,10-2.9,13.4-.3l12.3,6.8-46.1,100.5-13.3,27.6-12.5-7.1c-.4-.2-.9-.5-1.3-.7h0c-3.7-2.5-6-7.7-6-14.9v-55.9c0-13.9,8.5-30.2,18.9-36.2Z"/><path class="h" d="m329.2,317.1l13.6-28.1,46.4-101.1-.5-.3-12.3-6.8c-3.7-2.9-8.7-2.8-14,.3l-34.5,19.9c-10.6,6.1-19.2,22.6-19.2,36.7v55.9c0,7.2,2.2,12.6,6.2,15.4.4.3.9.6,1.3.8l13,7.4Zm58.4-128.7l-45.9,100-13,27-11.9-6.7c-.4-.2-.8-.4-1.2-.7-3.6-2.5-5.7-7.7-5.7-14.4v-55.9c0-13.7,8.4-29.7,18.6-35.7l34.5-19.9c4.8-2.8,9.4-2.9,12.8-.3l11.9,6.6Z"/><path class="h" d="m309.4,234.9l.7-7.7,4.8-10.6,13.5,7.7-3.9,7.6-1.1,6.8-.3,1.8,35.4,12.9-16.2,35.4-13.3,27.6-12.5-7.1c-.4-.2-.9-.5-1.3-.7h0c-3.7-2.5-6-7.7-6-14.9v-55.9c0-.9,0-1.9.1-2.8Z"/><g><path class="e" d="m341.7,315.6l34.5-19.9c10.4-6,18.9-22.3,18.9-36.2v-55.9c0-13.9-8.5-20.3-18.9-14.3l-34.5,19.9c-10.4,6-18.9,22.3-18.9,36.2v55.9c0,13.9,8.5,20.3,18.9,14.3Z"/><path class="h" d="m334.3,318.4c2.5,0,5.1-.8,7.8-2.3l34.5-19.9c10.6-6.1,19.2-22.6,19.2-36.7v-55.9c0-7.5-2.5-13.3-6.9-15.8-3.6-2.1-8.2-1.8-13,1l-34.5,19.9c-10.6,6.1-19.2,22.6-19.2,36.7v55.9c0,7.5,2.5,13.3,6.9,15.8,1.6.9,3.3,1.4,5.2,1.4Zm49.4-130.8c1.7,0,3.2.4,4.6,1.2,4,2.3,6.3,7.7,6.3,14.8v55.9c0,13.7-8.4,29.7-18.6,35.7l-34.5,19.9c-4.3,2.5-8.5,2.9-11.8,1-4-2.3-6.3-7.7-6.3-14.8v-55.9c0-13.7,8.4-29.7,18.6-35.7l34.5-19.9c2.5-1.4,4.9-2.2,7.2-2.2Z"/></g><polygon class="h" points="378.5 188.8 364.6 180.8 372.4 179.3 384.3 186.5 387.1 187.6 382.4 187 378.5 188.8"/></g></g><g><g><polygon class="e" points="541.2 439 564 427.2 522.8 421 541.2 439"/><path class="h" d="m541.1,439.7l24.8-12.8-44.8-6.8,20.1,19.6Zm20.9-12.2l-20.7,10.7-16.7-16.3,37.4,5.7Z"/></g><g><polygon class="e" points="365.4 336.9 388.2 325.2 347 319 365.4 336.9"/><path class="h" d="m365.3,337.7l24.8-12.8-44.8-6.8,20.1,19.6Zm20.9-12.2l-20.7,10.7-16.7-16.3,37.4,5.7Z"/></g><path class="e" d="m348.1,212.4l34.5-19.9c5.2-3,10-2.9,13.4-.3l300.8,174.7-46.1,100.5-13.3,27.6-41.2-23.9-3.3-9.7c-1.1-3.4-3.5-6.4-6.1-7.9l-36.7-21.2c-2.6-1.5-5-1.2-6.1.9l-3.2,5.7-120.1-69.8-3.4-9.8c-1.1-3.4-3.5-6.4-6.1-7.9l-36.7-21.2c-2.6-1.5-5-1.2-6.1.9l-3.3,5.8-28.7-16.7c-.4-.2-.9-.5-1.3-.7h0c-3.7-2.5-6-7.7-6-14.9v-55.9c0-13.9,8.5-30.2,18.9-36.2Z"/><path class="h" d="m637.7,495.9l13.6-28.1,46.4-101.1-.5-.3-300.8-174.7c-3.7-2.9-8.7-2.8-14,.3l-34.5,19.9c-10.6,6.1-19.2,22.6-19.2,36.7v55.9c0,7.2,2.2,12.6,6.2,15.4.4.3.9.6,1.3.8l29.2,16.9,3.6-6.3c.4-.7,1-1.2,1.7-1.4,1-.3,2.3,0,3.6.7l36.7,21.2c2.5,1.4,4.8,4.4,5.9,7.6l3.4,10h.2c0,.1,120.7,70.2,120.7,70.2l3.5-6.2c.4-.7,1-1.2,1.7-1.4,1-.3,2.3,0,3.6.7l36.7,21.2c2.5,1.4,4.8,4.4,5.9,7.6l3.4,9.9h.2c0,.1,41.7,24.4,41.7,24.4Zm58.4-128.7l-45.9,100-13,27-40.4-23.5-3.2-9.5c-1.2-3.5-3.7-6.7-6.4-8.3l-36.7-21.2c-1.6-.9-3.2-1.2-4.5-.9-1,.3-1.9,1-2.4,2l-2.9,5.2-119.4-69.4-3.3-9.6c-1.2-3.5-3.7-6.7-6.4-8.3l-36.7-21.2c-1.6-.9-3.2-1.2-4.5-.9-1,.3-1.9,1-2.4,2l-3,5.3-28.1-16.4c-.4-.2-.8-.4-1.2-.7-3.6-2.5-5.7-7.7-5.7-14.4v-55.9c0-13.7,8.4-29.7,18.6-35.7l34.5-19.9c4.8-2.8,9.4-2.9,12.8-.3l300.4,174.5Z"/><path class="h" d="m329.3,245.8l.7-7.7,4.1-9.2,302.7,174.2-3.9,7.6-1.1,6.8-.3,1.8,35.4,12.9-16.2,35.4-13.3,27.6-41.2-23.9-3.3-9.7c-1.1-3.4-3.5-6.4-6.1-7.9l-36.7-21.2c-2.6-1.5-5-1.2-6.1.9l-3.2,5.7-120.1-69.8-3.4-9.8c-1.1-3.4-3.5-6.4-6.1-7.9l-36.7-21.2c-2.6-1.5-5-1.2-6.1.9l-3.3,5.8-28.7-16.7c-.4-.2-.9-.5-1.3-.7h0c-3.7-2.5-6-7.7-6-14.9v-55.9c0-.9,0-1.9.1-2.8Z"/><g><g><path class="h" d="m570.4,452.2c0,5.7,4,12.6,8.9,15.5,4.9,2.8,8.9.5,8.9-5.2s-4-12.6-8.9-15.5c-4.9-2.8-8.9-.5-8.9,5.2Z"/><path class="f" d="m572,448.2l15,9v1.8l-3.2-1.9c.5,1.1.7,2.3.7,3.4,0,1.7-.6,2.9-1.7,3.5-.5.3-1,.4-1.5.4s-1.6-.2-2.4-.7c-2.7-1.6-4.8-5.2-4.8-8.4s.5-2.6,1.3-3.2l-3.4-2v-1.8Zm4.5,4.8c-.6.3-.9,1.1-.9,2.2,0,2.5,1.9,5.8,4.1,7.1.9.5,1.8.7,2.4.3.6-.3.9-1.1.9-2.2,0-1.6-.7-3.5-1.9-5l-4.2-2.5c-.1,0-.3,0-.4.1Z"/></g><g><path class="h" d="m550.9,440.7c0,5.7,4,12.6,8.9,15.5,4.9,2.8,8.9.5,8.9-5.2s-4-12.6-8.9-15.5c-4.9-2.8-8.9-.5-8.9,5.2Z"/><path class="f" d="m552.5,436.7l15,9v1.8l-3.2-1.9c.5,1.1.7,2.3.7,3.4,0,1.7-.6,2.9-1.7,3.5-.5.3-1,.4-1.5.4s-1.6-.2-2.4-.7c-2.7-1.6-4.8-5.2-4.8-8.4s.5-2.6,1.3-3.2l-3.4-2v-1.8Zm4.5,4.8c-.6.3-.9,1.1-.9,2.2,0,2.5,1.9,5.8,4.1,7.1.9.5,1.8.7,2.4.3.6-.3.9-1.1.9-2.2,0-1.6-.7-3.5-1.9-5l-4.2-2.5c-.1,0-.3,0-.4.1Z"/></g></g><g><g><path class="h" d="m396.1,350.4c0,5.7,4,12.6,8.9,15.5,4.9,2.8,8.9.5,8.9-5.2s-4-12.6-8.9-15.5c-4.9-2.8-8.9-.5-8.9,5.2Z"/><path class="f" d="m397.7,346.4l15,9v1.8l-3.2-1.9c.5,1.1.7,2.3.7,3.4,0,1.7-.6,2.9-1.7,3.5-.5.3-1,.4-1.5.4s-1.6-.2-2.4-.7c-2.7-1.6-4.8-5.2-4.8-8.4s.5-2.6,1.3-3.2l-3.4-2v-1.8Zm4.5,4.8c-.6.3-.9,1.1-.9,2.2,0,2.5,1.9,5.8,4.1,7.1.9.5,1.8.7,2.4.3.6-.3.9-1.1.9-2.2,0-1.6-.7-3.5-1.9-5l-4.2-2.5c-.1,0-.3,0-.4.1Z"/></g><g><path class="h" d="m376.6,338.8c0,5.7,4,12.6,8.9,15.5,4.9,2.8,8.9.5,8.9-5.2s-4-12.6-8.9-15.5c-4.9-2.8-8.9-.5-8.9,5.2Z"/><path class="f" d="m378.2,334.8l15,9v1.8l-3.2-1.9c.5,1.1.7,2.3.7,3.4,0,1.7-.6,2.9-1.7,3.5-.5.3-1,.4-1.5.4s-1.6-.2-2.4-.7c-2.7-1.6-4.8-5.2-4.8-8.4s.5-2.6,1.3-3.2l-3.4-2v-1.8Zm4.5,4.8c-.6.3-.9,1.1-.9,2.2,0,2.5,1.9,5.8,4.1,7.1.9.5,1.8.7,2.4.3.6-.3.9-1.1.9-2.2,0-1.6-.7-3.5-1.9-5l-4.2-2.5c-.1,0-.3,0-.4.1Z"/></g></g><polygon class="g" points="370.4 210.1 346.2 224.1 635.5 389.6 659.6 375.6 370.4 210.1"/><polygon class="g" points="388.5 199.6 378 205.5 667.3 371 677.8 365.1 388.5 199.6"/><g><path class="e" d="m611,460.4c.7,0,1.3-.2,1.9-.5,1.6-.9,2.4-2.9,2.4-5.6v-33.5c0-4.8-3-10.5-6.6-12.6l-9.2-5.3c-1.7-1-3.3-1.1-4.7-.3-1.6.9-2.4,2.9-2.4,5.6v33.5c0,4.8,3,10.5,6.6,12.6l9.2,5.3c1,.6,1.9.8,2.8.8Zm-14.3-57.4c.7,0,1.5.2,2.3.7l9.2,5.3c3.4,1.9,6.1,7.2,6.1,11.7v33.5c0,2.3-.7,4-2,4.7-1,.6-2.3.5-3.7-.3l-9.2-5.3c-3.4-1.9-6.1-7.2-6.1-11.7v-33.5c0-2.3.7-4,2-4.7.4-.2.9-.4,1.4-.4Z"/><path class="e" d="m612.3,449.5v-5.3l-3.7-2.2c-.5-.3-.9-.3-1.3,0-.4.3-.7.8-.7,1.5v.5c0,1.2.7,2.7,1.7,3.2l4,2.3Zm-.6-5v3.9l-3.1-1.8c-.8-.4-1.4-1.7-1.4-2.7v-.5c0-.5.1-.8.4-1,.2-.1.5,0,.7,0l3.4,2Z"/><path class="e" d="m599.8,410.3c1-.6,2.3-.5,3.6.3l1.5.9c2.8,1.6,5.1,5.9,5.1,9.6v9.3c0,2-.7,3.6-1.9,4.3-.5.3-.9.4-1.5.4s-1.4-.2-2.2-.6l-1.5-.9c-2.8-1.6-5.1-5.9-5.1-9.6v-9.3c0-2,.7-3.6,1.9-4.3Zm1.9.6c-.1,0-.3,0-.4,0-.4,0-.7,0-1,.3-.9.5-1.4,1.8-1.4,3.5v9.3c0,3.4,2,7.3,4.6,8.8l1.5.9c1,.6,1.9.7,2.7.3.2-.1.4-.3.6-.5-.2,0-.3-.1-.5-.2l-1.5-.9c-2.7-1.6-5-5.8-5-9.5v-9.3c0-1,.2-1.8.5-2.5Zm7.4,10.1c0-3.4-2-7.3-4.6-8.8l-1.5-.9c-.2-.1-.4-.2-.7-.3-.3.7-.5,1.4-.5,2.4v9.3c0,3.4,2.1,7.4,4.7,8.9l1.5.9c.2,0,.4.2.5.2.3-.6.5-1.5.5-2.4v-9.3Z"/></g><g><path class="e" d="m363.2,317.2c.7,0,1.3-.2,1.9-.5,1.6-.9,2.4-2.9,2.4-5.6v-33.5c0-4.8-3-10.5-6.6-12.6l-9.2-5.3c-1.7-1-3.3-1.1-4.7-.3-1.6.9-2.4,2.9-2.4,5.6v33.5c0,4.8,3,10.5,6.6,12.6l9.2,5.3c1,.6,1.9.8,2.8.8Zm-14.3-57.4c.7,0,1.5.2,2.3.7l9.2,5.3c3.4,1.9,6.1,7.2,6.1,11.7v33.5c0,2.3-.7,4-2,4.7-1,.6-2.3.5-3.7-.3l-9.2-5.3c-3.4-1.9-6.1-7.2-6.1-11.7v-33.5c0-2.3.7-4,2-4.7.4-.2.9-.4,1.4-.4Z"/><path class="e" d="m364.5,306.3v-5.3l-3.7-2.2c-.5-.3-.9-.3-1.3,0-.4.3-.7.8-.7,1.5v.5c0,1.2.7,2.7,1.7,3.2l4,2.3Zm-.6-5v3.9l-3.1-1.8c-.8-.4-1.4-1.7-1.4-2.7v-.5c0-.5.1-.8.4-1,.2-.1.5,0,.7,0l3.4,2Z"/><path class="e" d="m351.9,267.1c1-.6,2.3-.5,3.6.3l1.5.9c2.8,1.6,5.1,5.9,5.1,9.6v9.3c0,2-.7,3.6-1.9,4.3-.5.3-.9.4-1.5.4s-1.4-.2-2.2-.6l-1.5-.9c-2.8-1.6-5.1-5.9-5.1-9.6v-9.3c0-2,.7-3.6,1.9-4.3Zm1.9.6c-.1,0-.3,0-.4,0-.4,0-.7,0-1,.3-.9.5-1.4,1.8-1.4,3.5v9.3c0,3.4,2,7.3,4.6,8.8l1.5.9c1,.6,1.9.7,2.7.3.2-.1.4-.3.6-.5-.2,0-.3-.1-.5-.2l-1.5-.9c-2.7-1.6-5-5.8-5-9.5v-9.3c0-1,.2-1.8.5-2.5Zm7.4,10.1c0-3.4-2-7.3-4.6-8.8l-1.5-.9c-.2-.1-.4-.2-.7-.3-.3.7-.5,1.4-.5,2.4v9.3c0,3.4,2.1,7.4,4.7,8.9l1.5.9c.2,0,.4.2.5.2.3-.6.5-1.5.5-2.4v-9.3Z"/></g><path class="e" d="m529.2,432.9l.6.3v-9.9c0-1.3-.7-2.4-1.7-3.1l-91.9-54.3c-.6-.3-1.2-.3-1.8,0-.6.3-.9.9-.9,1.5v9.8l.6.4v-10.1c0-.4.2-.8.6-1,.4-.2.8-.2,1.2,0l91.9,54.3c.9.5,1.4,1.5,1.4,2.6v9.6Z"/><path class="f" d="m622.7,480.5c.2,0,.4,0,.6-.2.5-.3.7-.8.7-1.6v-4.3c0-1.3-.8-2.8-1.8-3.4l-7.1-4.1c-.5-.3-1-.3-1.4,0-.5.3-.7.8-.7,1.6v4.3c0,1.3.8,2.8,1.8,3.4l7.1,4.1c.3.2.5.2.8.2Zm-8.4-13.2c.2,0,.4,0,.5.2l7.1,4.1c.8.5,1.5,1.8,1.5,2.9v4.3c0,.5-.2.9-.4,1.1-.3.2-.6,0-.8,0l-7.1-4.1-.2.3.2-.3c-.8-.5-1.5-1.8-1.5-2.9v-4.3c0-.5.2-.9.4-1.1,0,0,.2,0,.3,0Z"/><path class="f" d="m342.2,320.9c.2,0,.4,0,.6-.2.5-.3.7-.8.7-1.6v-4.3c0-1.3-.8-2.8-1.8-3.4l-7.1-4.1c-.5-.3-1-.3-1.4,0-.5.3-.7.8-.7,1.6v4.3c0,1.3.8,2.8,1.8,3.4l7.1,4.1c.3.2.5.2.8.2Zm-8.4-13.2c.2,0,.4,0,.5.2l7.1,4.1c.8.5,1.5,1.8,1.5,2.9v4.3c0,.5-.2.9-.4,1.1-.3.2-.6,0-.8,0l-7.1-4.1c-.8-.5-1.5-1.8-1.5-2.9v-4.3c0-.5.2-.9.4-1.1,0,0,.2,0,.3,0Z"/><g><path class="e" d="m649.9,387.4l34.5-19.9c4.7-2.7,9.3-3.1,13-1,0,0,27.5,16.7,65.4,73.2,37.9,56.4,28.2,69.9,15.5,78.3-12.7,8.4-30.9,17.5-30.9,17.5,0,0-19.4,7.2-45.8-5.5-21.6-10.4-63-33.6-64-34.1-4.4-2.5-6.9-8.3-6.9-15.8v-55.9c0-14.1,8.6-30.6,19.2-36.7Z"/><path class="h" d="m732.7,538.1c9.1,0,14.6-2,14.7-2,.2-.1,18.4-9.2,31.1-17.6,4.7-3.1,9.6-7.3,11.1-14.8,2.6-13.2-5.8-33.6-26.4-64.4-37.5-55.9-65.3-73.2-65.6-73.3-3.9-2.2-8.7-1.9-13.6,1l-34.5,19.9c-10.8,6.2-19.5,22.9-19.5,37.2v55.9c0,7.8,2.6,13.7,7.2,16.3.4.2,42.3,23.7,64,34.2,12.4,6,23.4,7.5,31.5,7.5Zm-40.6-172.3c1.8,0,3.4.4,4.9,1.3.3.2,27.8,17.3,65.2,73,20.2,30,28.8,50.8,26.2,63.5-1.4,7.1-6.2,11-10.6,14-12.6,8.3-30.7,17.4-30.9,17.5-.1,0-19.4,6.9-45.3-5.5-21.7-10.4-63.6-33.9-63.9-34.1-4.2-2.4-6.6-8-6.6-15.3v-55.9c0-13.9,8.5-30.2,18.9-36.2l34.5-19.9c2.6-1.5,5.1-2.2,7.5-2.2Z"/></g><path class="e" d="m634.7,496.4l.7-1c-4.5-3.3-4.2-19.8-4.2-19.9v-51.1c0-13.6,5.2-22,5.2-22l-1-.6c-.2.3-5.4,8.7-5.4,22.7v51c0,.7-.4,17.3,4.7,20.9Z"/><path class="f" d="m748.8,457.3l-16.2,9.2c-9.2,5.2-20.3,6-30.2,2.2h0c-11.5-4.5-21.5-12-29-21.7l-16.3-21c-4.4-5.7-6.3-13-5.1-20.1h0c.7-4.4,3.4-8.2,7.2-10.4l28.8-16.5c5.6-3.2,12.3-3.6,18.2-1h0c6.8,3,12.9,7.3,18,12.7,8.1,8.6,17.7,20,28.3,34.6,3.9,5.4,5.7,12,5,18.7v.2c-.6,5.6-3.9,10.6-8.7,13.3Z"/><g><path class="g" d="m748.8,457.3l-.4.2c-6.4-7.3-16-21-28-34.5-10.3-11.7-22.3-23.1-32.4-33.8,5.6-3.2,12.3-3.6,18.2-1,6.8,3,12.9,7.3,18,12.7,8.1,8.6,17.7,20,28.3,34.6,2.3,3.2,3.9,6.8,4.6,10.6-1.1,4.7-4.1,8.8-8.4,11.2Z"/><path class="g" d="m659.2,405.8l20.3-11.6c6.4,4.7,19.7,18.9,33.3,34.6,7.3,8.5,14.8,18.4,19.9,26.2,2.1,3.2,4,6,5.6,8.4l-5.7,3.2c-9.2,5.2-20.3,6-30.2,2.2-11.5-4.5-21.5-12-29-21.7l-16.3-21c-2.5-3.2-4.1-6.9-4.9-10.7.9-4,3.5-7.4,7-9.4Z"/></g><path class="h" d="m651.4,405.7c.8-4.6,3.5-8.6,7.5-10.9l28.8-16.5c5.7-3.3,12.7-3.6,18.7-1,7,3.1,13.1,7.4,18.2,12.8,9.4,10,18.9,21.7,28.4,34.7,4,5.5,5.8,12.3,5.1,19.1v.2c-.6,5.8-4,10.9-9.1,13.8l-16.2,9.2c-5.5,3.1-11.6,4.7-17.7,4.7s-8.8-.8-13.1-2.5c-11.6-4.5-21.7-12.1-29.3-21.9l-16.3-21c-4.5-5.8-6.4-13.3-5.2-20.6Zm6.2,19.9l16.3,21s0,0,0,0c1.2,1.6,2.7,3.1,4.2,4.4,5.8,4.8,12.3,8.6,19.4,11.2,9.6,3.6,20.3,2.5,29.2-2.6l16.2-9.2c4.9-2.8,8.1-7.7,8.7-13.3v-.2c.7-6.5-1-13.1-4.8-18.4-.6-.9-1.2-1.7-1.8-2.5-7.1-9.2-14.2-17.6-21.2-25.1-5.1-5.4-11.2-9.7-18.1-12.7-5.6-2.4-12-2-17.3,1.1-8.5,4.9-21.9,12.6-28.9,16.6-3.6,2.1-6.2,5.6-6.9,9.7-1.2,7,.6,14.4,4.9,20Z"/><path class="h" d="m642.4,394c-2.7,5.7-4.8,12,3.5,37.6,7.5,23.2,41.4,59,64.7,77.1,10.9,5.3,31.3,10.6,47.5,3.1,28.1-13,28.1-27.2,28.1-27.3h1.2c0,.6,0,15-28.8,28.4-5.8,2.7-12.3,3.8-18.8,3.8-9,0-17.9-2-24.8-4.7,3.3,2.4,6.3,4.3,8.9,5.7,20.6,11,31.2,6,49.1-4.6,16.6-9.8,16-19,15.9-20.2,2.5,14.5-3.6,20.7-10.7,25.4-12.7,8.4-30.9,17.5-30.9,17.5,0,0-19.4,7.2-45.8-5.5-21.6-10.4-63-33.6-64-34.1-4.4-2.5-6.9-8.3-6.9-15.8v-55.9c0-10.6,4.9-22.6,11.8-30.5Z"/><path class="f" d="m653.1,492.2c.3,0,.7,0,1-.3.8-.5,1.2-1.5,1.2-2.8v-15.7c0-2.4-1.5-5.1-3.2-6.2l-7.2-4.2c-.8-.5-1.7-.5-2.3-.2-.8.4-1.2,1.5-1.2,2.8v15.7c0,2.4,1.5,5.1,3.2,6.2l7.2,4.2c.5.3.9.4,1.4.4Zm-9.6-28.9c.3,0,.7.1,1.1.3l7.2,4.2c1.6.9,2.9,3.5,2.9,5.7v15.7c0,1.1-.3,1.9-.9,2.2-.5.3-1.1.2-1.7-.2l-7.2-4.2c-1.6-.9-2.9-3.5-2.9-5.7v-15.7c0-1.1.3-1.9.9-2.2.2-.1.4-.2.6-.2Z"/><path class="e" d="m781.7,517.1c2.2-1.5,5.2-5.2,5.3-5.4l-1-.6s-3.2,3.9-5.2,5.3l.9.6Z"/><path class="f" d="m565.6,410.8v-23.5l-10.7-6.2v23.5l10.7,6.2Zm-1.2-22.8v20.7l-8.3-4.8v-20.7l8.3,4.8Z"/><path class="f" d="m410.1,321v-23.5l-10.7-6.2v23.5l10.7,6.2Zm-1.2-22.8v20.7l-8.3-4.8v-20.7l8.3,4.8Z"/><path class="f" d="m538.6,372.7v36.7l-46.3-26.7v-36.7l46.3,26.7Zm-40.4-22.1v28.6l39.3,22.7v-28.6l-39.3-22.7Z"/><path class="f" d="m473.3,335v36.7l-46.3-26.7v-36.7l46.3,26.7Zm-40.3-22v28.9l39.2,22.6v-28.9l-39.2-22.6Z"/><g><polygon class="f" points="370.6 222.2 396.7 237.2 422.7 222.2 396.7 207.1 370.6 222.2"/><polygon class="f" points="422.7 222.2 422.7 227 396.7 242.1 396.7 237.2 422.7 222.2"/><polygon class="g" points="370.6 225.3 396.7 240.3 422.7 225.3 396.7 210.2 370.6 225.3"/><path class="h" d="m370.6,221.5l26.1-15,26.1,15,.6.3v5.5l-26.1,15-.6.3-.6-.3-26.1-15v-5.5l.6-.3Zm26.7,19.5l24.8-14.3v-3.4l-24.8,14.3v3.4Zm24.2-18.8l-24.9-14.3-24.8,14.3,24.9,14.3,24.8-14.3Z"/></g><g><polygon class="f" points="612.8 360.6 638.9 375.7 665 360.6 638.9 345.6 612.8 360.6"/><polygon class="f" points="665 360.6 665 365.5 638.9 380.5 638.9 375.7 665 360.6"/><polygon class="g" points="612.8 363.7 638.9 378.8 665 363.7 638.9 348.7 612.8 363.7"/><path class="h" d="m612.8,359.9l26.1-15,26.1,15,.6.3v5.5l-26.1,15-.6.4-.6-.4-26.1-15v-5.5l.6-.3Zm26.7,19.5l24.8-14.3v-3.4l-24.8,14.3v3.4Zm24.2-18.8l-24.9-14.3-24.8,14.3,24.9,14.3,24.8-14.3Z"/></g><g><path class="e" d="m693.9,487.9c-2.4-2.8,1-6.8,4.2-5.1,2.7,1.5,6,3.3,9.8,5.2,19.2,9.7,32.9,2.9,32.9,2.9,0,0,15.7-8.6,26.9-15.5,10.8-6.6,3.2-22.7,2.7-23.8,3.9,6.3,7.1,12,9.7,17.2,2.7,12.1-7.1,18.9-7.1,18.9,0,0-17.4,11.1-28.7,15.9-11.3,4.8-25.5,3.1-38-4.5-4.7-2.8-8.9-7.1-12.4-11.3Z"/><path class="g" d="m695.3,491.6c-2.4-2.8,1-6.8,4.2-5.1,2.7,1.5,6,3.3,9.8,5.2,19.2,9.7,32.9,2.9,32.9,2.9,0,0,15.7-8.6,26.9-15.5,10.8-6.6,3.2-22.7,2.7-23.8,3.9,6.3,7.1,12,9.7,17.2,2.7,12.1-7.1,18.9-7.1,18.9,0,0-17.4,11.1-28.7,15.9-11.3,4.8-25.5,3.1-38-4.5-4.7-2.8-8.9-7.1-12.4-11.3Z"/><path class="h" d="m730.6,507c4.9,0,9.6-.9,14-2.7,11.3-4.8,28.7-15.8,28.8-15.9.1,0,10.1-7.3,7.4-19.6-2.7-5.4-6-11.2-9.8-17.3l-1.1.6c.3.7,7.9,16.6-2.5,23-11.1,6.8-26.7,15.4-26.9,15.5-.1,0-13.7,6.5-32.4-2.9-3.6-1.8-6.9-3.5-9.8-5.2-2-1.1-3.9-.3-4.9.9-1,1.3-1.4,3.3,0,5,4.2,5.1,8.4,8.9,12.6,11.4,7.9,4.8,16.5,7.2,24.6,7.2Zm42.6-49.7c2.5,4.2,4.6,8.2,6.5,11.8,2.5,11.4-6.9,18.1-7,18.2-.2,0-17.5,11.1-28.6,15.8-11.1,4.7-25.1,3-37.4-4.4-4-2.4-8.1-6.2-12.3-11.1h0c-1.1-1.3-.7-2.7,0-3.5.7-.8,2-1.5,3.4-.6,3,1.7,6.3,3.4,9.9,5.2,19.2,9.7,33.3,3,33.5,2.9.2,0,15.8-8.7,26.9-15.5,7.3-4.5,6.6-13,5.1-18.7Z"/></g><path class="h" d="m700.1,487.6c.8-.8,2-1,3.2-.7h0c1.5.3,3,1.2,4.2,2.5,1.7,1.8,2.4,3.9,2.2,5.6,0,.8-.4,1.5-1,2.1-.6.6-1.4.9-2.3.9s-.8,0-1.3-.2c-1.4-.4-2.7-1.2-3.9-2.4-2.4-2.6-3-6-1.2-7.6Zm1.1,5.3c.9.1,1.6,0,2.1-.4.9-.9.8-2.7-.3-4.5-.2,0-.4,0-.5,0-.6,0-1.1.2-1.5.5-.9.9-.8,2.7.2,4.4Z"/><path class="h" d="m713.4,493.3c.8-.8,2-1,3.2-.7h0c1.5.3,3,1.2,4.2,2.5,1.7,1.8,2.4,3.9,2.2,5.6,0,.8-.4,1.5-1,2.1-.6.6-1.4.9-2.3.9s-.8,0-1.3-.2c-1.4-.4-2.7-1.2-3.9-2.4-2.4-2.6-3-6-1.2-7.6Zm1.1,5.3c.9.1,1.6,0,2.1-.4.9-.9.8-2.7-.3-4.5-.2,0-.4,0-.5,0-.6,0-1.1.2-1.5.5-.9.9-.8,2.7.2,4.4Z"/><path class="h" d="m772.7,470c.7-1.9.9-3.8.8-5.8.6.9,1.3,1.6,2,1.7.5,0,1-.2,1.4-.7-.6-1.7-1.6-3-2.7-3.2-.3,0-.6,0-.8.2,0-.4-.1-.8-.2-1.1.3,0,.6-.1.9,0,.8,0,1.6.6,2.3,1.4.5.9,1,1.8,1.4,2.6.2.6.3,1.2.4,1.8.2,1.4,0,2.7-.6,3.6-.2.3-.4.6-.6.8-.5.5-1.1.7-1.8.6-.6,0-1.3-.4-1.8-.9-.3-.2-.5-.5-.8-.8Z"/></g></g></g></svg>